<?xml version="1.0" encoding="UTF-8"?>
<svg version="1.1" xmlns="http://www.w3.org/2000/svg" width="40" height="40">
<path d="M0 0 C13.2 0 26.4 0 40 0 C40 13.2 40 26.4 40 40 C26.8 40 13.6 40 0 40 C0 26.8 0 13.6 0 0 Z " fill="#AF5E09" transform="translate(0,0)"/>
<path d="M0 0 C13.2 0 26.4 0 40 0 C40 13.2 40 26.4 40 40 C26.8 40 13.6 40 0 40 C0 26.8 0 13.6 0 0 Z M7 3 C7 14.22 7 25.44 7 37 C15.58 37 24.16 37 33 37 C33 28.75 33 20.5 33 12 C30.03 12 27.06 12 24 12 C24 9.03 24 6.06 24 3 C18.39 3 12.78 3 7 3 Z " fill="#FCF9F6" transform="translate(0,0)"/>
<path d="M0 0 C2.79173055 -0.02690104 5.58320348 -0.04679053 8.375 -0.0625 C9.56609375 -0.07506836 9.56609375 -0.07506836 10.78125 -0.08789062 C16.7734375 -0.11328125 16.7734375 -0.11328125 19 1 C18.75 3.375 18.75 3.375 18 6 C15.9375 7.3125 15.9375 7.3125 14 8 C14.99 8.66 15.98 9.32 17 10 C17 10.66 17 11.32 17 12 C13.72311897 13.95218444 11.22930273 14.27063566 7.4375 14.25 C6.01244141 14.25773437 6.01244141 14.25773437 4.55859375 14.265625 C2 14 2 14 -1 12 C-0.67 11.01 -0.34 10.02 0 9 C0.66 8.67 1.32 8.34 2 8 C1.34 7.01 0.68 6.02 0 5 C-0.125 2.3125 -0.125 2.3125 0 0 Z " fill="#F9F4EF" transform="translate(11,21)"/>
<path d="M0 0 C0.33 0 0.66 0 1 0 C1 7.26 1 14.52 1 22 C-1.5575 22.04125 -4.115 22.0825 -6.75 22.125 C-7.54889648 22.14320801 -8.34779297 22.16141602 -9.17089844 22.18017578 C-12.95261758 22.20970558 -15.80684118 22.13437458 -19 20 C-18.25234375 19.93941406 -17.5046875 19.87882812 -16.734375 19.81640625 C-15.25710937 19.69072266 -15.25710937 19.69072266 -13.75 19.5625 C-12.77546875 19.48128906 -11.8009375 19.40007813 -10.796875 19.31640625 C-8.43538247 19.04925416 -6.28098935 18.64628032 -4 18 C-4.95865509 15.66924071 -4.95865509 15.66924071 -8 14 C-7.21625 13.566875 -6.4325 13.13375 -5.625 12.6875 C-2.78301625 11.10779753 -2.78301625 11.10779753 -1 8 C-0.54860541 5.9507906 -0.54860541 5.9507906 -0.375 3.8125 C-0.25125 2.554375 -0.1275 1.29625 0 0 Z " fill="#AC5906" transform="translate(32,15)"/>
<path d="M0 0 C5.28 0 10.56 0 16 0 C16.33 0.99 16.66 1.98 17 3 C13.72311897 4.95218444 11.22930273 5.27063566 7.4375 5.25 C6.01244141 5.25773437 6.01244141 5.25773437 4.55859375 5.265625 C2 5 2 5 -1 3 C-0.67 2.01 -0.34 1.02 0 0 Z " fill="#ECDAC7" transform="translate(11,30)"/>
<path d="M0 0 C0.66 0 1.32 0 2 0 C2 0.99 2 1.98 2 3 C2.78375 3.28875 3.5675 3.5775 4.375 3.875 C7 5 7 5 9 7 C6.04335481 8.4783226 3.25770263 8.06032783 0 8 C0 6.68 0 5.36 0 4 C-0.66 3.67 -1.32 3.34 -2 3 C-1.34 3 -0.68 3 0 3 C0 2.01 0 1.02 0 0 Z " fill="#D89035" transform="translate(19,14)"/>
<path d="M0 0 C1.14926266 0.95421808 2.29430541 1.91352045 3.4375 2.875 C4.07558594 3.40867187 4.71367187 3.94234375 5.37109375 4.4921875 C7 6 7 6 8 8 C5.36 8 2.72 8 0 8 C0 5.36 0 2.72 0 0 Z " fill="#B3661A" transform="translate(25,3)"/>
<path d="M0 0 C2.97 0.33 5.94 0.66 9 1 C8.67 1.66 8.34 2.32 8 3 C5.03 3 2.06 3 -1 3 C-0.67 2.01 -0.34 1.02 0 0 Z " fill="#FBF8F4" transform="translate(12,31)"/>
</svg>
