<?xml version="1.0" standalone="no"?>
<!DOCTYPE svg PUBLIC "-//W3C//DTD SVG 20010904//EN"
 "http://www.w3.org/TR/2001/REC-SVG-20010904/DTD/svg10.dtd">
<svg version="1.0" xmlns="http://www.w3.org/2000/svg"
 width="40.000000pt" height="40.000000pt" viewBox="0 0 40.000000 40.000000"
 preserveAspectRatio="xMidYMid meet">

<g transform="translate(0.000000,40.000000) scale(0.100000,-0.100000)"
fill="#000000" stroke="none">
<path d="M74 357 c-2 -7 -3 -82 -2 -167 l3 -155 125 0 125 0 3 118 3 117 -35
0 c-44 0 -66 22 -66 66 l0 34 -75 0 c-53 0 -77 -4 -81 -13z m96 -107 c0 -5 -4
-10 -10 -10 -5 0 -10 5 -10 10 0 6 5 10 10 10 6 0 10 -4 10 -10z m40 -5 c0 -8
5 -15 11 -15 5 0 7 -4 4 -10 -3 -5 2 -10 12 -11 13 -1 11 -3 -7 -10 -21 -7
-19 -8 11 -5 60 7 80 -36 35 -71 -22 -18 -22 -20 -8 -31 29 -20 -12 -42 -78
-42 -67 0 -106 21 -79 43 15 11 15 16 3 37 -7 14 -13 35 -14 47 0 20 4 22 33
18 25 -4 28 -3 12 4 -18 9 -18 10 7 10 17 1 28 -5 31 -16 4 -16 5 -16 6 -1 0
9 -3 20 -9 23 -6 4 -5 13 3 25 14 24 27 26 27 5z"/>
<path d="M250 332 c0 -35 14 -46 50 -40 20 3 19 5 -14 37 l-36 35 0 -32z"/>
</g>
</svg>
